G04 EAGLE Gerber RS-274X export*
G75*
%MOMM*%
%FSLAX34Y34*%
%LPD*%
%INBottom Copper*%
%IPPOS*%
%AMOC8*
5,1,8,0,0,1.08239X$1,22.5*%
G01*
%ADD10C,1.778000*%
%ADD11C,5.556250*%
%ADD12C,4.762500*%
%ADD13C,2.540000*%
%ADD14C,1.984375*%
%ADD15C,3.444875*%
%ADD16C,1.587500*%
%ADD17C,5.000000*%
%ADD18C,0.800000*%
%ADD19C,1.800000*%
%ADD20C,3.500000*%
%ADD21C,4.350000*%
%ADD22C,4.500000*%
%ADD23C,4.300000*%


D10*
X73350Y77200D03*
X168650Y77200D03*
X263950Y77200D03*
D11*
X192700Y333300D03*
D12*
X180000Y244400D03*
X180000Y422200D03*
D11*
X279060Y335840D03*
X101260Y333300D03*
X192700Y631200D03*
D12*
X180000Y542300D03*
X180000Y720100D03*
D11*
X279060Y633740D03*
X101260Y631200D03*
D13*
X91600Y821015D03*
X91600Y860385D03*
D12*
X576360Y728520D03*
X403640Y728520D03*
X520480Y728520D03*
X459520Y728520D03*
X576360Y281480D03*
X576360Y217980D03*
X576360Y154480D03*
X403640Y281480D03*
X403640Y217980D03*
X403640Y154480D03*
D14*
X604300Y568500D03*
X604300Y530400D03*
X375700Y530400D03*
X375700Y568500D03*
D12*
X879060Y728520D03*
X706340Y728520D03*
X823180Y728520D03*
X762220Y728520D03*
X879060Y281480D03*
X879060Y217980D03*
X879060Y154480D03*
X706340Y281480D03*
X706340Y217980D03*
X706340Y154480D03*
D14*
X907000Y568500D03*
X907000Y530400D03*
X678400Y530400D03*
X678400Y568500D03*
D12*
X1178860Y728520D03*
X1006140Y728520D03*
X1122980Y728520D03*
X1062020Y728520D03*
X1178860Y281480D03*
X1178860Y217980D03*
X1178860Y154480D03*
X1006140Y281480D03*
X1006140Y217980D03*
X1006140Y154480D03*
D14*
X1206800Y568500D03*
X1206800Y530400D03*
X978200Y530400D03*
X978200Y568500D03*
D13*
X488688Y810000D03*
X409313Y810000D03*
X647888Y810000D03*
X568513Y810000D03*
X807888Y810000D03*
X728513Y810000D03*
X967888Y810000D03*
X888513Y810000D03*
X1127888Y810000D03*
X1048513Y810000D03*
X1287888Y810000D03*
X1208513Y810000D03*
D15*
X377700Y54000D03*
X453900Y54000D03*
X415800Y54000D03*
X530700Y54000D03*
X606900Y54000D03*
X568800Y54000D03*
X683700Y54000D03*
X759900Y54000D03*
X721800Y54000D03*
X826700Y54000D03*
X902900Y54000D03*
X864800Y54000D03*
X979700Y54000D03*
X1055900Y54000D03*
X1017800Y54000D03*
X1132700Y54000D03*
X1208900Y54000D03*
X1170800Y54000D03*
D16*
X1261400Y586500D03*
X1261400Y611900D03*
X1261400Y517600D03*
X1261400Y543000D03*
X1261400Y448700D03*
X1261400Y474100D03*
X1261400Y379800D03*
X1261400Y405200D03*
X1261400Y310900D03*
X1261400Y336300D03*
X1261400Y242000D03*
X1261400Y267400D03*
D17*
X257700Y542300D02*
X180000Y542300D01*
X257700Y542300D02*
X282300Y542300D01*
X403640Y650000D02*
X403640Y663640D01*
X403640Y728520D01*
X360000Y620000D02*
X282300Y542300D01*
X360000Y620000D02*
X403640Y663640D01*
X708520Y728520D02*
X710000Y730000D01*
X708520Y728520D02*
X706340Y728520D01*
X1122980Y728520D02*
X1122980Y702980D01*
X1070000Y650000D01*
X990000Y650000D01*
X960000Y650000D01*
X910000Y650000D01*
X820000Y650000D01*
X700000Y650000D01*
X600000Y650000D01*
X530000Y650000D01*
X403640Y650000D01*
X520480Y660480D02*
X520480Y728520D01*
X520480Y660480D02*
X520000Y660000D01*
X530000Y650000D01*
X706340Y656340D02*
X706340Y728520D01*
X706340Y656340D02*
X700000Y650000D01*
X823180Y663180D02*
X823180Y728520D01*
X823180Y663180D02*
X820000Y660000D01*
X820000Y650000D01*
X1006140Y666140D02*
X1006140Y728520D01*
X1006140Y666140D02*
X990000Y650000D01*
X274400Y244400D02*
X180000Y244400D01*
X274400Y244400D02*
X350000Y320000D01*
X350000Y450000D01*
X257700Y542300D01*
X180000Y244400D02*
X180000Y88550D01*
X168650Y77200D01*
D18*
X375700Y568500D02*
X375700Y625700D01*
X390000Y640000D01*
X375700Y625700D02*
X370000Y620000D01*
X370000Y640000D01*
X380000Y650000D01*
X370000Y640000D02*
X360000Y630000D01*
X360000Y620000D01*
X600000Y572800D02*
X604300Y568500D01*
X600000Y572800D02*
X600000Y650000D01*
X678400Y628400D02*
X678400Y568500D01*
X678400Y628400D02*
X700000Y650000D01*
X907000Y647000D02*
X907000Y568500D01*
X907000Y647000D02*
X910000Y650000D01*
X978200Y631800D02*
X978200Y568500D01*
X978200Y631800D02*
X960000Y650000D01*
X1095300Y680000D02*
X1206800Y568500D01*
X1095300Y680000D02*
X1090000Y680000D01*
X1090000Y670000D01*
X1070000Y650000D01*
X1206800Y596800D02*
X1206800Y568500D01*
X1206800Y596800D02*
X1260000Y650000D01*
X1270000Y650000D01*
X1290000Y630000D01*
X1290000Y600000D01*
X1276500Y586500D01*
X1261400Y586500D01*
X1273500Y586500D01*
X1290000Y570000D01*
X1290000Y530000D01*
X1277600Y517600D01*
X1261400Y517600D01*
X1272400Y517600D01*
X1290000Y500000D01*
X1290000Y460000D01*
X1278700Y448700D01*
X1261400Y448700D01*
X1271300Y448700D01*
X1290000Y430000D01*
X1290000Y400000D01*
X1269800Y379800D01*
X1261400Y379800D01*
X1270200Y379800D01*
X1290000Y360000D01*
X1290000Y330000D01*
X1270000Y310000D01*
X1269100Y310900D01*
X1261400Y310900D01*
X1290000Y282300D01*
X1290000Y250000D02*
X1280000Y240000D01*
X1278000Y242000D01*
X1261400Y242000D01*
X1290000Y250000D02*
X1290000Y282300D01*
D19*
X180000Y732615D02*
X91600Y821015D01*
X180000Y732615D02*
X180000Y720100D01*
X90100Y720100D01*
X40000Y670000D01*
X40000Y562200D01*
X180000Y422200D01*
D20*
X377700Y77700D02*
X377700Y54000D01*
X377700Y77700D02*
X380000Y80000D01*
D21*
X377700Y77700D02*
X377700Y92300D01*
X340000Y130000D01*
X374136Y265067D02*
X377227Y265067D01*
X393640Y281480D02*
X403640Y281480D01*
X393640Y281480D02*
X377227Y265067D01*
X340000Y230930D02*
X340000Y130000D01*
X340000Y230930D02*
X374136Y265067D01*
D20*
X453900Y76100D02*
X453900Y54000D01*
X453900Y76100D02*
X450000Y80000D01*
D21*
X453900Y76100D02*
X460000Y82200D01*
X423144Y201567D02*
X420054Y201567D01*
X403640Y217980D01*
X423144Y201567D02*
X460000Y164710D01*
X460000Y82200D01*
D20*
X568800Y54000D02*
X570000Y55200D01*
X570000Y80000D01*
D21*
X570000Y148120D01*
X576360Y154480D01*
D20*
X683700Y54000D02*
X685552Y55852D01*
X685552Y69015D01*
X688269Y71732D01*
D21*
X685552Y69015D02*
X650000Y104566D01*
X676836Y265067D02*
X689927Y265067D01*
X706340Y281480D01*
X676836Y265067D02*
X650000Y238230D01*
X650000Y104566D01*
D20*
X759900Y69900D02*
X759900Y54000D01*
X759900Y69900D02*
X760000Y70000D01*
X770000Y64100D02*
X759900Y54000D01*
X770000Y64100D02*
X770000Y90000D01*
D21*
X770000Y170000D01*
X720000Y220000D01*
X710000Y210000D01*
X710000Y214320D01*
X706340Y217980D01*
D20*
X864800Y74800D02*
X864800Y54000D01*
X864800Y74800D02*
X870000Y80000D01*
D21*
X864800Y74800D02*
X864800Y140220D01*
X879060Y154480D01*
D20*
X979700Y69700D02*
X979700Y54000D01*
X979700Y69700D02*
X980000Y70000D01*
D21*
X979700Y69700D02*
X979700Y90300D01*
X950000Y120000D01*
X976636Y265067D02*
X989727Y265067D01*
X1006140Y281480D01*
X950000Y238430D02*
X950000Y120000D01*
X950000Y238430D02*
X976636Y265067D01*
D20*
X1055900Y67163D02*
X1055900Y54000D01*
X1055900Y67163D02*
X1051532Y71532D01*
D21*
X1055900Y67163D02*
X1055900Y115900D01*
X1070000Y130000D01*
X1070000Y160000D01*
X1009080Y220920D01*
X1006140Y217980D01*
D20*
X1170800Y79200D02*
X1170800Y54000D01*
X1170800Y79200D02*
X1170000Y80000D01*
D21*
X1170800Y79200D02*
X1170800Y146420D01*
X1178860Y154480D01*
D22*
X1062020Y728520D02*
X1073956Y740456D01*
X1060000Y726500D02*
X1060000Y720000D01*
X1127888Y794388D02*
X1127888Y810000D01*
X1062020Y728520D02*
X1060000Y726500D01*
X1073956Y740456D02*
X1073956Y748826D01*
D23*
X1102674Y777544D01*
X1111044Y777544D01*
D22*
X1127888Y794388D01*
D17*
X1178860Y728520D02*
X1297888Y728520D01*
D22*
X1297888Y800000D02*
X1287888Y810000D01*
X1297888Y800000D02*
X1297888Y728520D01*
D18*
X1240000Y563600D02*
X1206800Y530400D01*
X1240000Y563600D02*
X1240000Y600000D01*
X1251900Y611900D01*
X1261400Y611900D01*
X1008600Y500000D02*
X978200Y530400D01*
X1008600Y500000D02*
X1220000Y500000D01*
X1220000Y501600D01*
X1261400Y543000D01*
X963300Y474100D02*
X907000Y530400D01*
X963300Y474100D02*
X1261400Y474100D01*
X689400Y519400D02*
X678400Y530400D01*
X689400Y519400D02*
X803600Y405200D01*
X1261400Y405200D01*
X604300Y405700D02*
X604300Y530400D01*
X604300Y405700D02*
X675000Y335000D01*
X676300Y336300D01*
X1261400Y336300D01*
X375700Y484300D02*
X375700Y530400D01*
X375700Y484300D02*
X400000Y460000D01*
X400000Y350000D01*
X430000Y320000D01*
X1200000Y320000D01*
X1252600Y267400D01*
X1261400Y267400D01*
M02*
