G04 EAGLE Gerber RS-274X export*
G75*
%MOMM*%
%FSLAX34Y34*%
%LPD*%
%INTop Copper*%
%IPPOS*%
%AMOC8*
5,1,8,0,0,1.08239X$1,22.5*%
G01*
%ADD10C,1.778000*%
%ADD11C,5.556250*%
%ADD12C,4.762500*%
%ADD13C,2.540000*%
%ADD14C,1.984375*%
%ADD15C,3.444875*%
%ADD16C,1.587500*%
%ADD17C,5.000000*%
%ADD18C,2.500000*%
%ADD19C,3.500000*%
%ADD20C,4.350000*%


D10*
X73350Y77200D03*
X168650Y77200D03*
X263950Y77200D03*
D11*
X192700Y333300D03*
D12*
X180000Y244400D03*
X180000Y422200D03*
D11*
X279060Y335840D03*
X101260Y333300D03*
X192700Y631200D03*
D12*
X180000Y542300D03*
X180000Y720100D03*
D11*
X279060Y633740D03*
X101260Y631200D03*
D13*
X91600Y821015D03*
X91600Y860385D03*
D12*
X576360Y728520D03*
X403640Y728520D03*
X520480Y728520D03*
X459520Y728520D03*
X576360Y281480D03*
X576360Y217980D03*
X576360Y154480D03*
X403640Y281480D03*
X403640Y217980D03*
X403640Y154480D03*
D14*
X604300Y568500D03*
X604300Y530400D03*
X375700Y530400D03*
X375700Y568500D03*
D12*
X879060Y728520D03*
X706340Y728520D03*
X823180Y728520D03*
X762220Y728520D03*
X879060Y281480D03*
X879060Y217980D03*
X879060Y154480D03*
X706340Y281480D03*
X706340Y217980D03*
X706340Y154480D03*
D14*
X907000Y568500D03*
X907000Y530400D03*
X678400Y530400D03*
X678400Y568500D03*
D12*
X1178860Y728520D03*
X1006140Y728520D03*
X1122980Y728520D03*
X1062020Y728520D03*
X1178860Y281480D03*
X1178860Y217980D03*
X1178860Y154480D03*
X1006140Y281480D03*
X1006140Y217980D03*
X1006140Y154480D03*
D14*
X1206800Y568500D03*
X1206800Y530400D03*
X978200Y530400D03*
X978200Y568500D03*
D13*
X488688Y810000D03*
X409313Y810000D03*
X647888Y810000D03*
X568513Y810000D03*
X807888Y810000D03*
X728513Y810000D03*
X967888Y810000D03*
X888513Y810000D03*
X1127888Y810000D03*
X1048513Y810000D03*
X1287888Y810000D03*
X1208513Y810000D03*
D15*
X377700Y54000D03*
X453900Y54000D03*
X415800Y54000D03*
X530700Y54000D03*
X606900Y54000D03*
X568800Y54000D03*
X683700Y54000D03*
X759900Y54000D03*
X721800Y54000D03*
X826700Y54000D03*
X902900Y54000D03*
X864800Y54000D03*
X979700Y54000D03*
X1055900Y54000D03*
X1017800Y54000D03*
X1132700Y54000D03*
X1208900Y54000D03*
X1170800Y54000D03*
D16*
X1261400Y586500D03*
X1261400Y611900D03*
X1261400Y517600D03*
X1261400Y543000D03*
X1261400Y448700D03*
X1261400Y474100D03*
X1261400Y379800D03*
X1261400Y405200D03*
X1261400Y310900D03*
X1261400Y336300D03*
X1261400Y242000D03*
X1261400Y267400D03*
D17*
X101260Y333300D02*
X101260Y631200D01*
X101260Y333300D02*
X101260Y105110D01*
X73350Y77200D01*
D18*
X101260Y631200D02*
X101260Y771260D01*
X140000Y810000D01*
X140000Y840000D01*
X119615Y860385D02*
X91600Y860385D01*
X119615Y860385D02*
X140000Y840000D01*
D19*
X415800Y74200D02*
X415800Y54000D01*
X415800Y74200D02*
X410000Y80000D01*
D20*
X415800Y74200D02*
X415800Y142320D01*
X403640Y154480D01*
D19*
X530700Y79300D02*
X530700Y54000D01*
X530700Y79300D02*
X530000Y80000D01*
D20*
X530700Y79300D02*
X530700Y119300D01*
X510000Y140000D01*
X556856Y275067D02*
X575067Y275067D01*
X510000Y228210D02*
X510000Y140000D01*
X510000Y228210D02*
X556856Y275067D01*
X575067Y275067D02*
X580000Y280000D01*
X570000Y280000D02*
X570000Y270000D01*
X570000Y280000D02*
X571480Y281480D01*
X576360Y281480D01*
D19*
X610000Y57100D02*
X606900Y54000D01*
X610000Y57100D02*
X610000Y80000D01*
D20*
X610000Y110000D01*
X630000Y130000D01*
X630000Y180000D01*
X600000Y210000D01*
X580000Y210000D01*
X576360Y213640D01*
X576360Y217980D01*
D19*
X721800Y78200D02*
X721800Y54000D01*
X721800Y78200D02*
X720000Y80000D01*
D20*
X721800Y78200D02*
X721800Y139020D01*
X706340Y154480D01*
D19*
X826700Y54000D02*
X828552Y55852D01*
X828552Y69015D01*
X830000Y70463D01*
X830000Y80000D01*
D20*
X820000Y90000D01*
X849556Y265067D02*
X865067Y265067D01*
X880000Y280000D01*
X820000Y235510D02*
X820000Y90000D01*
X820000Y235510D02*
X849556Y265067D01*
X880000Y270000D02*
X880000Y280000D01*
X880000Y280540D01*
X879060Y281480D01*
D19*
X902900Y87100D02*
X902900Y54000D01*
X902900Y87100D02*
X900000Y90000D01*
D20*
X902900Y87100D02*
X940000Y124200D01*
X940000Y170000D01*
X900000Y210000D01*
X880000Y210000D01*
X879060Y210940D01*
X879060Y217980D01*
D19*
X1017800Y77800D02*
X1017800Y54000D01*
X1017800Y77800D02*
X1020000Y80000D01*
D20*
X1017800Y77800D02*
X1017800Y142820D01*
X1006140Y154480D01*
D19*
X1132700Y77300D02*
X1132700Y54000D01*
X1132700Y77300D02*
X1130000Y80000D01*
D20*
X1132700Y77300D02*
X1132700Y117300D01*
X1120000Y130000D01*
X1149356Y265067D02*
X1162447Y265067D01*
X1178860Y281480D01*
X1120000Y235710D02*
X1120000Y130000D01*
X1120000Y235710D02*
X1149356Y265067D01*
D19*
X1208900Y78900D02*
X1208900Y54000D01*
X1208900Y78900D02*
X1210000Y80000D01*
D20*
X1208900Y78900D02*
X1208900Y108900D01*
X1230000Y130000D01*
X1198364Y211567D02*
X1185274Y211567D01*
X1178860Y217980D01*
X1230000Y179930D02*
X1230000Y130000D01*
X1230000Y179930D02*
X1198364Y211567D01*
D17*
X1208513Y810000D02*
X1148513Y870000D01*
X1090000Y870000D01*
X1053513Y833513D01*
X1043513Y823513D01*
X1048513Y818513D02*
X1048513Y810000D01*
X1048513Y818513D02*
X1043513Y823513D01*
X1053513Y833513D02*
X1012947Y874078D01*
X930000Y874078D01*
X888513Y832591D01*
X888513Y810000D01*
X1208513Y780000D02*
X1240000Y748513D01*
X1208513Y780000D02*
X1208513Y810000D01*
X1240000Y748513D02*
X1240000Y680000D01*
X950000Y390000D01*
X333220Y390000D01*
X279060Y335840D01*
X488688Y778688D02*
X488688Y810000D01*
X488688Y778688D02*
X460000Y750000D01*
X460000Y728040D01*
X460000Y720000D01*
X460000Y728040D02*
X459520Y728520D01*
X647888Y797071D02*
X647888Y810000D01*
X647888Y760048D02*
X616360Y728520D01*
X576360Y728520D01*
X647888Y760048D02*
X647888Y810000D01*
X807888Y810000D02*
X807888Y784414D01*
X762220Y738747D02*
X762220Y728520D01*
X762220Y738747D02*
X807888Y784414D01*
X879060Y728520D02*
X926408Y728520D01*
X967888Y770000D02*
X967888Y810000D01*
X967888Y770000D02*
X926408Y728520D01*
X728513Y810000D02*
X728513Y821488D01*
X675922Y874078D01*
X620000Y874078D02*
X567217Y821295D01*
X568513Y820000D02*
X568513Y810000D01*
X568513Y820000D02*
X567217Y821295D01*
X518513Y870000D01*
X440000Y870000D01*
D19*
X409313Y839313D02*
X409313Y810000D01*
D17*
X409313Y839313D02*
X440000Y870000D01*
X620000Y874078D02*
X675922Y874078D01*
D19*
X409313Y810000D02*
X389313Y810000D01*
D17*
X280000Y700688D01*
X280000Y640000D01*
X280000Y630000D01*
X280000Y640000D02*
X290000Y630000D01*
X290000Y633740D02*
X279060Y633740D01*
X290000Y633740D02*
X290000Y630000D01*
M02*
