G04 EAGLE Gerber RS-274X export*
G75*
%MOMM*%
%FSLAX34Y34*%
%LPD*%
%IN*%
%IPPOS*%
%AMOC8*
5,1,8,0,0,1.08239X$1,22.5*%
G01*
%ADD10C,0.254000*%


D10*
X0Y0D02*
X1340000Y0D01*
X1340000Y910000D01*
X0Y910000D01*
X0Y0D01*
X465000Y809464D02*
X464924Y808396D01*
X464771Y807335D01*
X464543Y806288D01*
X464241Y805260D01*
X463867Y804256D01*
X463422Y803281D01*
X462908Y802341D01*
X462329Y801440D01*
X461687Y800582D01*
X460985Y799772D01*
X460228Y799015D01*
X459418Y798313D01*
X458560Y797671D01*
X457659Y797092D01*
X456719Y796578D01*
X455744Y796133D01*
X454740Y795759D01*
X453712Y795457D01*
X452665Y795229D01*
X451604Y795076D01*
X450536Y795000D01*
X449464Y795000D01*
X448396Y795076D01*
X447335Y795229D01*
X446288Y795457D01*
X445260Y795759D01*
X444256Y796133D01*
X443281Y796578D01*
X442341Y797092D01*
X441440Y797671D01*
X440582Y798313D01*
X439772Y799015D01*
X439015Y799772D01*
X438313Y800582D01*
X437671Y801440D01*
X437092Y802341D01*
X436578Y803281D01*
X436133Y804256D01*
X435759Y805260D01*
X435457Y806288D01*
X435229Y807335D01*
X435076Y808396D01*
X435000Y809464D01*
X435000Y810536D01*
X435076Y811604D01*
X435229Y812665D01*
X435457Y813712D01*
X435759Y814740D01*
X436133Y815744D01*
X436578Y816719D01*
X437092Y817659D01*
X437671Y818560D01*
X438313Y819418D01*
X439015Y820228D01*
X439772Y820985D01*
X440582Y821687D01*
X441440Y822329D01*
X442341Y822908D01*
X443281Y823422D01*
X444256Y823867D01*
X445260Y824241D01*
X446288Y824543D01*
X447335Y824771D01*
X448396Y824924D01*
X449464Y825000D01*
X450536Y825000D01*
X451604Y824924D01*
X452665Y824771D01*
X453712Y824543D01*
X454740Y824241D01*
X455744Y823867D01*
X456719Y823422D01*
X457659Y822908D01*
X458560Y822329D01*
X459418Y821687D01*
X460228Y820985D01*
X460985Y820228D01*
X461687Y819418D01*
X462329Y818560D01*
X462908Y817659D01*
X463422Y816719D01*
X463867Y815744D01*
X464241Y814740D01*
X464543Y813712D01*
X464771Y812665D01*
X464924Y811604D01*
X465000Y810536D01*
X465000Y809464D01*
X625000Y809464D02*
X624924Y808396D01*
X624771Y807335D01*
X624543Y806288D01*
X624241Y805260D01*
X623867Y804256D01*
X623422Y803281D01*
X622908Y802341D01*
X622329Y801440D01*
X621687Y800582D01*
X620985Y799772D01*
X620228Y799015D01*
X619418Y798313D01*
X618560Y797671D01*
X617659Y797092D01*
X616719Y796578D01*
X615744Y796133D01*
X614740Y795759D01*
X613712Y795457D01*
X612665Y795229D01*
X611604Y795076D01*
X610536Y795000D01*
X609464Y795000D01*
X608396Y795076D01*
X607335Y795229D01*
X606288Y795457D01*
X605260Y795759D01*
X604256Y796133D01*
X603281Y796578D01*
X602341Y797092D01*
X601440Y797671D01*
X600582Y798313D01*
X599772Y799015D01*
X599015Y799772D01*
X598313Y800582D01*
X597671Y801440D01*
X597092Y802341D01*
X596578Y803281D01*
X596133Y804256D01*
X595759Y805260D01*
X595457Y806288D01*
X595229Y807335D01*
X595076Y808396D01*
X595000Y809464D01*
X595000Y810536D01*
X595076Y811604D01*
X595229Y812665D01*
X595457Y813712D01*
X595759Y814740D01*
X596133Y815744D01*
X596578Y816719D01*
X597092Y817659D01*
X597671Y818560D01*
X598313Y819418D01*
X599015Y820228D01*
X599772Y820985D01*
X600582Y821687D01*
X601440Y822329D01*
X602341Y822908D01*
X603281Y823422D01*
X604256Y823867D01*
X605260Y824241D01*
X606288Y824543D01*
X607335Y824771D01*
X608396Y824924D01*
X609464Y825000D01*
X610536Y825000D01*
X611604Y824924D01*
X612665Y824771D01*
X613712Y824543D01*
X614740Y824241D01*
X615744Y823867D01*
X616719Y823422D01*
X617659Y822908D01*
X618560Y822329D01*
X619418Y821687D01*
X620228Y820985D01*
X620985Y820228D01*
X621687Y819418D01*
X622329Y818560D01*
X622908Y817659D01*
X623422Y816719D01*
X623867Y815744D01*
X624241Y814740D01*
X624543Y813712D01*
X624771Y812665D01*
X624924Y811604D01*
X625000Y810536D01*
X625000Y809464D01*
X785000Y809464D02*
X784924Y808396D01*
X784771Y807335D01*
X784543Y806288D01*
X784241Y805260D01*
X783867Y804256D01*
X783422Y803281D01*
X782908Y802341D01*
X782329Y801440D01*
X781687Y800582D01*
X780985Y799772D01*
X780228Y799015D01*
X779418Y798313D01*
X778560Y797671D01*
X777659Y797092D01*
X776719Y796578D01*
X775744Y796133D01*
X774740Y795759D01*
X773712Y795457D01*
X772665Y795229D01*
X771604Y795076D01*
X770536Y795000D01*
X769464Y795000D01*
X768396Y795076D01*
X767335Y795229D01*
X766288Y795457D01*
X765260Y795759D01*
X764256Y796133D01*
X763281Y796578D01*
X762341Y797092D01*
X761440Y797671D01*
X760582Y798313D01*
X759772Y799015D01*
X759015Y799772D01*
X758313Y800582D01*
X757671Y801440D01*
X757092Y802341D01*
X756578Y803281D01*
X756133Y804256D01*
X755759Y805260D01*
X755457Y806288D01*
X755229Y807335D01*
X755076Y808396D01*
X755000Y809464D01*
X755000Y810536D01*
X755076Y811604D01*
X755229Y812665D01*
X755457Y813712D01*
X755759Y814740D01*
X756133Y815744D01*
X756578Y816719D01*
X757092Y817659D01*
X757671Y818560D01*
X758313Y819418D01*
X759015Y820228D01*
X759772Y820985D01*
X760582Y821687D01*
X761440Y822329D01*
X762341Y822908D01*
X763281Y823422D01*
X764256Y823867D01*
X765260Y824241D01*
X766288Y824543D01*
X767335Y824771D01*
X768396Y824924D01*
X769464Y825000D01*
X770536Y825000D01*
X771604Y824924D01*
X772665Y824771D01*
X773712Y824543D01*
X774740Y824241D01*
X775744Y823867D01*
X776719Y823422D01*
X777659Y822908D01*
X778560Y822329D01*
X779418Y821687D01*
X780228Y820985D01*
X780985Y820228D01*
X781687Y819418D01*
X782329Y818560D01*
X782908Y817659D01*
X783422Y816719D01*
X783867Y815744D01*
X784241Y814740D01*
X784543Y813712D01*
X784771Y812665D01*
X784924Y811604D01*
X785000Y810536D01*
X785000Y809464D01*
X945000Y809464D02*
X944924Y808396D01*
X944771Y807335D01*
X944543Y806288D01*
X944241Y805260D01*
X943867Y804256D01*
X943422Y803281D01*
X942908Y802341D01*
X942329Y801440D01*
X941687Y800582D01*
X940985Y799772D01*
X940228Y799015D01*
X939418Y798313D01*
X938560Y797671D01*
X937659Y797092D01*
X936719Y796578D01*
X935744Y796133D01*
X934740Y795759D01*
X933712Y795457D01*
X932665Y795229D01*
X931604Y795076D01*
X930536Y795000D01*
X929464Y795000D01*
X928396Y795076D01*
X927335Y795229D01*
X926288Y795457D01*
X925260Y795759D01*
X924256Y796133D01*
X923281Y796578D01*
X922341Y797092D01*
X921440Y797671D01*
X920582Y798313D01*
X919772Y799015D01*
X919015Y799772D01*
X918313Y800582D01*
X917671Y801440D01*
X917092Y802341D01*
X916578Y803281D01*
X916133Y804256D01*
X915759Y805260D01*
X915457Y806288D01*
X915229Y807335D01*
X915076Y808396D01*
X915000Y809464D01*
X915000Y810536D01*
X915076Y811604D01*
X915229Y812665D01*
X915457Y813712D01*
X915759Y814740D01*
X916133Y815744D01*
X916578Y816719D01*
X917092Y817659D01*
X917671Y818560D01*
X918313Y819418D01*
X919015Y820228D01*
X919772Y820985D01*
X920582Y821687D01*
X921440Y822329D01*
X922341Y822908D01*
X923281Y823422D01*
X924256Y823867D01*
X925260Y824241D01*
X926288Y824543D01*
X927335Y824771D01*
X928396Y824924D01*
X929464Y825000D01*
X930536Y825000D01*
X931604Y824924D01*
X932665Y824771D01*
X933712Y824543D01*
X934740Y824241D01*
X935744Y823867D01*
X936719Y823422D01*
X937659Y822908D01*
X938560Y822329D01*
X939418Y821687D01*
X940228Y820985D01*
X940985Y820228D01*
X941687Y819418D01*
X942329Y818560D01*
X942908Y817659D01*
X943422Y816719D01*
X943867Y815744D01*
X944241Y814740D01*
X944543Y813712D01*
X944771Y812665D01*
X944924Y811604D01*
X945000Y810536D01*
X945000Y809464D01*
X1105000Y809464D02*
X1104924Y808396D01*
X1104771Y807335D01*
X1104543Y806288D01*
X1104241Y805260D01*
X1103867Y804256D01*
X1103422Y803281D01*
X1102908Y802341D01*
X1102329Y801440D01*
X1101687Y800582D01*
X1100985Y799772D01*
X1100228Y799015D01*
X1099418Y798313D01*
X1098560Y797671D01*
X1097659Y797092D01*
X1096719Y796578D01*
X1095744Y796133D01*
X1094740Y795759D01*
X1093712Y795457D01*
X1092665Y795229D01*
X1091604Y795076D01*
X1090536Y795000D01*
X1089464Y795000D01*
X1088396Y795076D01*
X1087335Y795229D01*
X1086288Y795457D01*
X1085260Y795759D01*
X1084256Y796133D01*
X1083281Y796578D01*
X1082341Y797092D01*
X1081440Y797671D01*
X1080582Y798313D01*
X1079772Y799015D01*
X1079015Y799772D01*
X1078313Y800582D01*
X1077671Y801440D01*
X1077092Y802341D01*
X1076578Y803281D01*
X1076133Y804256D01*
X1075759Y805260D01*
X1075457Y806288D01*
X1075229Y807335D01*
X1075076Y808396D01*
X1075000Y809464D01*
X1075000Y810536D01*
X1075076Y811604D01*
X1075229Y812665D01*
X1075457Y813712D01*
X1075759Y814740D01*
X1076133Y815744D01*
X1076578Y816719D01*
X1077092Y817659D01*
X1077671Y818560D01*
X1078313Y819418D01*
X1079015Y820228D01*
X1079772Y820985D01*
X1080582Y821687D01*
X1081440Y822329D01*
X1082341Y822908D01*
X1083281Y823422D01*
X1084256Y823867D01*
X1085260Y824241D01*
X1086288Y824543D01*
X1087335Y824771D01*
X1088396Y824924D01*
X1089464Y825000D01*
X1090536Y825000D01*
X1091604Y824924D01*
X1092665Y824771D01*
X1093712Y824543D01*
X1094740Y824241D01*
X1095744Y823867D01*
X1096719Y823422D01*
X1097659Y822908D01*
X1098560Y822329D01*
X1099418Y821687D01*
X1100228Y820985D01*
X1100985Y820228D01*
X1101687Y819418D01*
X1102329Y818560D01*
X1102908Y817659D01*
X1103422Y816719D01*
X1103867Y815744D01*
X1104241Y814740D01*
X1104543Y813712D01*
X1104771Y812665D01*
X1104924Y811604D01*
X1105000Y810536D01*
X1105000Y809464D01*
X1265000Y809464D02*
X1264924Y808396D01*
X1264771Y807335D01*
X1264543Y806288D01*
X1264241Y805260D01*
X1263867Y804256D01*
X1263422Y803281D01*
X1262908Y802341D01*
X1262329Y801440D01*
X1261687Y800582D01*
X1260985Y799772D01*
X1260228Y799015D01*
X1259418Y798313D01*
X1258560Y797671D01*
X1257659Y797092D01*
X1256719Y796578D01*
X1255744Y796133D01*
X1254740Y795759D01*
X1253712Y795457D01*
X1252665Y795229D01*
X1251604Y795076D01*
X1250536Y795000D01*
X1249464Y795000D01*
X1248396Y795076D01*
X1247335Y795229D01*
X1246288Y795457D01*
X1245260Y795759D01*
X1244256Y796133D01*
X1243281Y796578D01*
X1242341Y797092D01*
X1241440Y797671D01*
X1240582Y798313D01*
X1239772Y799015D01*
X1239015Y799772D01*
X1238313Y800582D01*
X1237671Y801440D01*
X1237092Y802341D01*
X1236578Y803281D01*
X1236133Y804256D01*
X1235759Y805260D01*
X1235457Y806288D01*
X1235229Y807335D01*
X1235076Y808396D01*
X1235000Y809464D01*
X1235000Y810536D01*
X1235076Y811604D01*
X1235229Y812665D01*
X1235457Y813712D01*
X1235759Y814740D01*
X1236133Y815744D01*
X1236578Y816719D01*
X1237092Y817659D01*
X1237671Y818560D01*
X1238313Y819418D01*
X1239015Y820228D01*
X1239772Y820985D01*
X1240582Y821687D01*
X1241440Y822329D01*
X1242341Y822908D01*
X1243281Y823422D01*
X1244256Y823867D01*
X1245260Y824241D01*
X1246288Y824543D01*
X1247335Y824771D01*
X1248396Y824924D01*
X1249464Y825000D01*
X1250536Y825000D01*
X1251604Y824924D01*
X1252665Y824771D01*
X1253712Y824543D01*
X1254740Y824241D01*
X1255744Y823867D01*
X1256719Y823422D01*
X1257659Y822908D01*
X1258560Y822329D01*
X1259418Y821687D01*
X1260228Y820985D01*
X1260985Y820228D01*
X1261687Y819418D01*
X1262329Y818560D01*
X1262908Y817659D01*
X1263422Y816719D01*
X1263867Y815744D01*
X1264241Y814740D01*
X1264543Y813712D01*
X1264771Y812665D01*
X1264924Y811604D01*
X1265000Y810536D01*
X1265000Y809464D01*
M02*
