G04 EAGLE Gerber RS-274X export*
G75*
%MOMM*%
%FSLAX34Y34*%
%LPD*%
%INSoldermask Bottom*%
%IPPOS*%
%AMOC8*
5,1,8,0,0,1.08239X$1,22.5*%
G01*
%ADD10C,3.203200*%
%ADD11C,1.981200*%
%ADD12C,5.759450*%
%ADD13C,4.965700*%
%ADD14C,2.743200*%
%ADD15C,2.187575*%
%ADD16C,3.648075*%
%ADD17C,1.790700*%


D10*
X450000Y810000D03*
X610000Y810000D03*
X770000Y810000D03*
X930000Y810000D03*
X1090000Y810000D03*
X1250000Y810000D03*
D11*
X73350Y77200D03*
X168650Y77200D03*
X263950Y77200D03*
D12*
X192700Y333300D03*
D13*
X180000Y244400D03*
X180000Y422200D03*
D12*
X279060Y335840D03*
X101260Y333300D03*
X192700Y631200D03*
D13*
X180000Y542300D03*
X180000Y720100D03*
D12*
X279060Y633740D03*
X101260Y631200D03*
D14*
X91600Y821015D03*
X91600Y860385D03*
D13*
X576360Y728520D03*
X403640Y728520D03*
X520480Y728520D03*
X459520Y728520D03*
X576360Y281480D03*
X576360Y217980D03*
X576360Y154480D03*
X403640Y281480D03*
X403640Y217980D03*
X403640Y154480D03*
D15*
X604300Y568500D03*
X604300Y530400D03*
X375700Y530400D03*
X375700Y568500D03*
D13*
X879060Y728520D03*
X706340Y728520D03*
X823180Y728520D03*
X762220Y728520D03*
X879060Y281480D03*
X879060Y217980D03*
X879060Y154480D03*
X706340Y281480D03*
X706340Y217980D03*
X706340Y154480D03*
D15*
X907000Y568500D03*
X907000Y530400D03*
X678400Y530400D03*
X678400Y568500D03*
D13*
X1178860Y728520D03*
X1006140Y728520D03*
X1122980Y728520D03*
X1062020Y728520D03*
X1178860Y281480D03*
X1178860Y217980D03*
X1178860Y154480D03*
X1006140Y281480D03*
X1006140Y217980D03*
X1006140Y154480D03*
D15*
X1206800Y568500D03*
X1206800Y530400D03*
X978200Y530400D03*
X978200Y568500D03*
D14*
X488688Y810000D03*
X409313Y810000D03*
X647888Y810000D03*
X568513Y810000D03*
X807888Y810000D03*
X728513Y810000D03*
X967888Y810000D03*
X888513Y810000D03*
X1127888Y810000D03*
X1048513Y810000D03*
X1287888Y810000D03*
X1208513Y810000D03*
D16*
X377700Y54000D03*
X453900Y54000D03*
X415800Y54000D03*
X530700Y54000D03*
X606900Y54000D03*
X568800Y54000D03*
X683700Y54000D03*
X759900Y54000D03*
X721800Y54000D03*
X826700Y54000D03*
X902900Y54000D03*
X864800Y54000D03*
X979700Y54000D03*
X1055900Y54000D03*
X1017800Y54000D03*
X1132700Y54000D03*
X1208900Y54000D03*
X1170800Y54000D03*
D17*
X1261400Y586500D03*
X1261400Y611900D03*
X1261400Y517600D03*
X1261400Y543000D03*
X1261400Y448700D03*
X1261400Y474100D03*
X1261400Y379800D03*
X1261400Y405200D03*
X1261400Y310900D03*
X1261400Y336300D03*
X1261400Y242000D03*
X1261400Y267400D03*
M02*
