M48
;GenerationSoftware,Autodesk,EAGLE,9.3.1*%
;CreationDate,2019-03-30T08:17:11Z*%
FMAT,2
ICI,OFF
METRIC,TZ,000.000
T6C0.900
T5C0.965
T4C1.191
T3C1.588
T2C2.381
T1C3.000
%
G90
M71
T1
X45000Y81000
X61000Y81000
X77000Y81000
X93000Y81000
X109000Y81000
X125000Y81000
T2
X100614Y28148
X100614Y21798
X100614Y15448
X19270Y33330
X18000Y24440
X18000Y42220
X27906Y33584
X10126Y33330
X19270Y63120
X18000Y54230
X18000Y72010
X27906Y63374
X10126Y63120
X117886Y72852
X100614Y72852
X57636Y72852
X40364Y72852
X52048Y72852
X45952Y72852
X57636Y28148
X57636Y21798
X57636Y15448
X40364Y28148
X40364Y21798
X40364Y15448
X112298Y72852
X106202Y72852
X117886Y28148
X117886Y21798
X87906Y72852
X70634Y72852
X82318Y72852
X76222Y72852
X87906Y28148
X87906Y21798
X87906Y15448
X70634Y28148
X70634Y21798
X70634Y15448
X117886Y15448
T3
X40931Y81000
X53070Y5400
X41580Y5400
X9160Y82102
X9160Y86039
X64789Y81000
X56851Y81000
X37770Y5400
X80789Y81000
X72851Y81000
X96789Y81000
X88851Y81000
X112789Y81000
X104851Y81000
X45390Y5400
X128789Y81000
X120851Y81000
X48869Y81000
X60690Y5400
X56880Y5400
X68370Y5400
X75990Y5400
X72180Y5400
X82670Y5400
X90290Y5400
X86480Y5400
X97970Y5400
X105590Y5400
X101780Y5400
X113270Y5400
X120890Y5400
X117080Y5400
T4
X60430Y53040
X37570Y56850
X90700Y56850
X90700Y53040
X67840Y53040
X67840Y56850
X120680Y56850
X97820Y53040
X97820Y56850
X120680Y53040
X37570Y53040
X60430Y56850
T5
X126140Y58650
X126140Y61190
X126140Y51760
X126140Y54300
X126140Y44870
X126140Y47410
X126140Y37980
X126140Y40520
X126140Y31090
X126140Y33630
X126140Y24200
X126140Y26740
T6
X16865Y7720
X7335Y7720
X26395Y7720
M30